<?xml version="1.0" standalone="no"?>
<!DOCTYPE svg PUBLIC "-//W3C//DTD SVG 20010904//EN"
 "http://www.w3.org/TR/2001/REC-SVG-20010904/DTD/svg10.dtd">
<svg version="1.0" xmlns="http://www.w3.org/2000/svg"
 width="338.000000pt" height="338.000000pt" viewBox="0 0 338.000000 338.000000"
 preserveAspectRatio="xMidYMid meet">
<metadata>
Created by potrace 1.16, written by Peter Selinger 2001-2019
</metadata>
<g transform="translate(0.000000,338.000000) scale(0.100000,-0.100000)"
fill="#000" stroke="none">
<path d="M1349 3130 c-19 -10 -41 -26 -48 -34 -9 -11 -30 -16 -66 -16 -44 0
-59 -5 -103 -37 -54 -40 -191 -201 -221 -262 -22 -43 -86 -238 -106 -324 -31
-131 -17 -272 45 -462 64 -195 110 -466 96 -559 -8 -50 3 -39 32 30 32 77 42
162 35 307 -6 130 -5 133 18 159 26 29 102 58 152 58 75 -1 185 -82 223 -164
33 -71 33 -183 0 -297 -58 -202 -126 -539 -126 -628 0 -57 8 -69 114 -174 53
-53 106 -116 124 -149 33 -59 68 -91 142 -128 25 -13 73 -42 107 -65 54 -37
75 -45 160 -60 54 -9 138 -23 186 -31 151 -26 190 2 227 163 44 190 51 265 44
460 -7 203 -5 213 51 213 25 0 39 -7 54 -27 20 -27 21 -28 36 -9 19 25 20 115
1 159 -22 52 -49 71 -96 64 -47 -6 -169 -62 -235 -107 -53 -37 -123 -69 -148
-70 -10 0 -49 28 -86 63 -38 34 -108 94 -156 132 -151 121 -215 220 -223 352
-6 94 12 142 81 215 36 38 67 61 102 73 100 36 114 44 129 72 8 16 19 62 24
102 12 80 42 131 95 160 90 49 98 78 35 115 -45 26 -71 34 -303 90 -77 19
-174 44 -216 55 -42 12 -119 25 -170 30 l-94 8 80 2 c83 1 118 -5 395 -63 222
-48 351 -85 435 -128 79 -40 150 -58 230 -58 66 0 99 -12 120 -43 20 -30 39
-279 29 -379 -6 -66 -7 -68 -34 -68 -32 0 -45 -13 -56 -54 -6 -26 -5 -28 12
-21 10 4 29 10 41 12 22 5 23 5 9 -38 -7 -24 -17 -52 -21 -61 -4 -10 -5 -18
-2 -18 11 0 58 92 111 220 31 74 72 159 92 188 19 29 39 74 44 100 5 26 20 72
34 102 22 47 26 69 26 155 0 84 -4 108 -24 150 -29 63 -79 108 -140 125 -42
12 -50 18 -66 56 -22 50 -44 67 -124 89 -35 10 -73 30 -95 50 -20 18 -51 36
-70 40 -18 4 -48 15 -65 25 -17 10 -42 21 -56 25 -13 4 -37 17 -51 28 -16 11
-54 23 -91 27 -34 5 -90 18 -123 30 -45 17 -71 20 -110 15 -35 -4 -62 -1 -87
10 -47 19 -91 19 -128 0 -28 -14 -33 -14 -70 5 -49 25 -114 25 -161 0z"/>
<path d="M2125 1849 c-38 -5 -81 -13 -95 -18 -20 -8 -14 -10 35 -11 33 -1 85
-5 115 -9 l55 -7 -75 -13 c-92 -15 -104 -19 -64 -20 39 -1 135 -34 179 -61 18
-11 36 -20 41 -20 5 0 9 21 9 47 l0 48 40 3 c42 3 65 23 65 54 0 16 -10 18
-117 17 -65 -1 -149 -6 -188 -10z"/>
<path d="M857 1090 c-15 -22 -65 -69 -110 -105 -144 -117 -282 -187 -427 -219
-93 -20 -23 -21 78 -1 137 28 336 146 415 246 l26 34 -21 -65 c-16 -49 -21
-91 -21 -175 -1 -95 3 -121 26 -189 49 -139 118 -222 236 -281 136 -68 366
-74 529 -13 67 25 62 35 -9 14 -68 -20 -232 -21 -335 -1 -240 46 -376 203
-408 473 -8 66 9 199 34 266 11 27 19 51 17 52 -1 1 -15 -15 -30 -36z"/>
<path d="M2506 678 c3 -4 11 -8 17 -8 18 0 294 -85 370 -113 73 -28 214 -97
262 -129 23 -15 20 -11 -10 17 -89 82 -247 157 -412 196 -124 29 -233 47 -227
37z"/>
</g>
</svg>
